<svg
    xmlns="http://www.w3.org/2000/svg"
    xmlns:xlink="http://www.w3.org/1999/xlink"
    width="24"
    height="24"
    version="1.1"
    id="Layer_1"
    x="0px"
    y="0px"
    viewBox="0 0 24 24"
    style="enable-background: new 0 0 24 24"
    xml:space="preserve"
>
    <path
      class="st0"
      d="M6.5,2.2v3.5c0,0.4-0.3,0.8-0.8,0.8H2.2c-0.4,0-0.8-0.3-0.8-0.8V2.2c0-0.4,0.3-0.8,0.8-0.8h3.5  C6.2,1.5,6.5,1.8,6.5,2.2z M13.8,1.5h-3.5c-0.4,0-0.8,0.3-0.8,0.8v3.5c0,0.4,0.3,0.8,0.8,0.8h3.5c0.4,0,0.8-0.3,0.8-0.8V2.2  C14.5,1.8,14.2,1.5,13.8,1.5z M21.8,1.5h-3.5c-0.4,0-0.8,0.3-0.8,0.8v3.5c0,0.4,0.3,0.8,0.8,0.8h3.5c0.4,0,0.8-0.3,0.8-0.8V2.2  C22.5,1.8,22.2,1.5,21.8,1.5z M5.8,9.5H2.2c-0.4,0-0.8,0.3-0.8,0.8v3.5c0,0.4,0.3,0.8,0.8,0.8h3.5c0.4,0,0.8-0.3,0.8-0.8v-3.5  C6.5,9.8,6.2,9.5,5.8,9.5z M13.8,9.5h-3.5c-0.4,0-0.8,0.3-0.8,0.8v3.5c0,0.4,0.3,0.8,0.8,0.8h3.5c0.4,0,0.8-0.3,0.8-0.8v-3.5  C14.5,9.8,14.2,9.5,13.8,9.5z M21.8,9.5h-3.5c-0.4,0-0.8,0.3-0.8,0.8v3.5c0,0.4,0.3,0.8,0.8,0.8h3.5c0.4,0,0.8-0.3,0.8-0.8v-3.5  C22.5,9.8,22.2,9.5,21.8,9.5z M5.8,17.5H2.2c-0.4,0-0.8,0.3-0.8,0.8v3.5c0,0.4,0.3,0.8,0.8,0.8h3.5c0.4,0,0.8-0.3,0.8-0.8v-3.5  C6.5,17.8,6.2,17.5,5.8,17.5z M13.8,17.5h-3.5c-0.4,0-0.8,0.3-0.8,0.8v3.5c0,0.4,0.3,0.8,0.8,0.8h3.5c0.4,0,0.8-0.3,0.8-0.8v-3.5  C14.5,17.8,14.2,17.5,13.8,17.5z M21.8,17.5h-3.5c-0.4,0-0.8,0.3-0.8,0.8v3.5c0,0.4,0.3,0.8,0.8,0.8h3.5c0.4,0,0.8-0.3,0.8-0.8v-3.5  C22.5,17.8,22.2,17.5,21.8,17.5z"
    >
    </path>
</svg>